<svg width="24" height="24" viewBox="0 0 24 24" fill="none" xmlns="http://www.w3.org/2000/svg">
<g clip-path="url(#clip0_1039_6076)">
<path d="M12 0C18.6274 0 24 5.37258 24 12C24 18.6274 18.6274 24 12 24C5.37258 24 0 18.6274 0 12C0 5.37258 5.37258 0 12 0ZM17.1914 8.46484C16.8009 8.07445 16.1678 8.07434 15.7773 8.46484L10.8281 13.4141L8.70703 11.293C8.31655 10.9027 7.68345 10.9027 7.29297 11.293C6.90266 11.6835 6.90266 12.3165 7.29297 12.707L10.1211 15.5361C10.3085 15.7235 10.5631 15.829 10.8281 15.8291C11.0931 15.8291 11.3477 15.7234 11.5352 15.5361L17.1914 9.87891C17.5819 9.48841 17.5818 8.85536 17.1914 8.46484Z" fill="#002029"/>
</g>
<defs>
<clipPath id="clip0_1039_6076">
<rect width="24" height="24" fill="white"/>
</clipPath>
</defs>
</svg>
