<svg width="24" height="24" viewBox="0 0 24 24" fill="none" xmlns="http://www.w3.org/2000/svg">
<path fill-rule="evenodd" clip-rule="evenodd" d="M21.8 12.2273C21.8 11.5182 21.7364 10.8364 21.6182 10.1818H12.2V14.05H17.5818C17.35 15.3 16.6455 16.3591 15.5864 17.0682V19.5773H18.8182C20.7091 17.8364 21.8 15.2727 21.8 12.2273Z" fill="#4285F4"/>
<path fill-rule="evenodd" clip-rule="evenodd" d="M12.2001 22C14.9001 22 17.1637 21.1045 18.8183 19.5773L15.5865 17.0682C14.691 17.6682 13.5456 18.0227 12.2001 18.0227C9.59555 18.0227 7.39101 16.2636 6.60464 13.9H3.26373V16.4909C4.90919 19.7591 8.29101 22 12.2001 22Z" fill="#34A853"/>
<path fill-rule="evenodd" clip-rule="evenodd" d="M6.60456 13.9C6.40456 13.3 6.29092 12.6591 6.29092 12C6.29092 11.3409 6.40456 10.7 6.60456 10.1V7.50911H3.26365C2.58638 8.85911 2.20001 10.3864 2.20001 12C2.20001 13.6137 2.58638 15.1409 3.26365 16.4909L6.60456 13.9Z" fill="#FBBC05"/>
<path fill-rule="evenodd" clip-rule="evenodd" d="M12.2001 5.97727C13.6683 5.97727 14.9865 6.48182 16.0228 7.47273L18.891 4.60455C17.1592 2.99091 14.8956 2 12.2001 2C8.29101 2 4.90919 4.24091 3.26373 7.50909L6.60464 10.1C7.39101 7.73637 9.59555 5.97727 12.2001 5.97727Z" fill="#EA4335"/>
</svg>
