<svg width="24" height="24" viewBox="0 0 24 24" fill="none" xmlns="http://www.w3.org/2000/svg">
<path d="M7.50006 19C7.96471 19 8.19704 18.9999 8.39024 18.9614C9.18362 18.8036 9.80367 18.1836 9.96149 17.3902C9.99992 17.197 9.99992 16.9647 9.99992 16.5C9.99992 16.0353 9.99992 15.8031 9.96149 15.6099C9.80367 14.8165 9.18362 14.1962 8.39024 14.0384C8.19704 14 7.96472 14 7.50006 14C7.03541 14 6.80312 14 6.60992 14.0384C5.81654 14.1962 5.1963 14.8165 5.03849 15.6099C5.00006 15.8031 5.00006 16.0354 5.00006 16.5C5.00006 16.9647 5.00006 17.1969 5.03849 17.3901C5.1963 18.1835 5.81654 18.8036 6.60992 18.9614C6.80312 18.9999 7.03541 19 7.50006 19Z" stroke="#002029" stroke-width="2" stroke-linecap="round" stroke-linejoin="round"/>
<path d="M7.50006 10C7.96471 10 8.19704 9.99986 8.39024 9.96143C9.18362 9.80361 9.80367 9.18356 9.96149 8.39018C9.99992 8.19698 9.99992 7.96465 9.99992 7.5C9.99992 7.03535 9.99992 6.80306 9.96149 6.60986C9.80367 5.81648 9.18362 5.19624 8.39024 5.03843C8.19704 5 7.96472 5 7.50006 5C7.03541 5 6.80312 5 6.60992 5.03843C5.81654 5.19624 5.1963 5.81648 5.03849 6.60986C5.00006 6.80306 5.00006 7.03539 5.00006 7.50004C5.00006 7.9647 5.00006 8.19694 5.03849 8.39014C5.1963 9.18352 5.81654 9.80361 6.60992 9.96143C6.80312 9.99986 7.03541 10 7.50006 10Z" stroke="#002029" stroke-width="2" stroke-linecap="round" stroke-linejoin="round"/>
<path d="M16.5001 19C16.9647 19 17.197 18.9999 17.3902 18.9614C18.1836 18.8036 18.8037 18.1836 18.9615 17.3902C18.9999 17.197 18.9999 16.9647 18.9999 16.5C18.9999 16.0353 18.9999 15.8031 18.9615 15.6099C18.8037 14.8165 18.1836 14.1962 17.3902 14.0384C17.197 14 16.9647 14 16.5001 14C16.0354 14 15.8031 14 15.6099 14.0384C14.8165 14.1962 14.1963 14.8165 14.0385 15.6099C14.0001 15.8031 14.0001 16.0354 14.0001 16.5C14.0001 16.9647 14.0001 17.1969 14.0385 17.3901C14.1963 18.1835 14.8165 18.8036 15.6099 18.9614C15.8031 18.9999 16.0354 19 16.5001 19Z" stroke="#002029" stroke-width="2" stroke-linecap="round" stroke-linejoin="round"/>
<path d="M16.5001 10C16.9647 10 17.197 9.99986 17.3902 9.96143C18.1836 9.80361 18.8037 9.18356 18.9615 8.39018C18.9999 8.19698 18.9999 7.96465 18.9999 7.5C18.9999 7.03535 18.9999 6.80306 18.9615 6.60986C18.8037 5.81648 18.1836 5.19624 17.3902 5.03843C17.197 5 16.9647 5 16.5001 5C16.0354 5 15.8031 5 15.6099 5.03843C14.8165 5.19624 14.1963 5.81648 14.0385 6.60986C14.0001 6.80306 14.0001 7.03539 14.0001 7.50004C14.0001 7.9647 14.0001 8.19694 14.0385 8.39014C14.1963 9.18352 14.8165 9.80361 15.6099 9.96143C15.8031 9.99986 16.0354 10 16.5001 10Z" stroke="#002029" stroke-width="2" stroke-linecap="round" stroke-linejoin="round"/>
</svg>
