<svg width="24" height="24" viewBox="0 0 24 24" fill="none" xmlns="http://www.w3.org/2000/svg">
<path d="M11.9944 2C13.3077 1.99991 14.6083 2.25825 15.8216 2.76074C17.0348 3.26325 18.1372 4.00015 19.0657 4.92871C19.9943 5.8573 20.7312 6.95958 21.2337 8.17285C21.7362 9.38616 21.9946 10.6868 21.9944 12C21.9944 13.9778 21.4077 15.9112 20.3089 17.5557C19.2101 19.2001 17.6488 20.4824 15.8216 21.2393C13.9943 21.9961 11.9831 22.1935 10.0433 21.8076C8.10357 21.4217 6.32163 20.4697 4.92316 19.0713C3.52471 17.6728 2.57272 15.8909 2.18683 13.9512C1.80098 12.0114 1.99831 10.0001 2.75519 8.17285C3.51207 6.34566 4.79434 4.78433 6.43878 3.68555C8.08327 2.58673 10.0166 2 11.9944 2ZM12.0931 6.25C8.9244 6.25014 6.25032 8.71285 6.25031 11.9863C6.25031 13.3569 6.5025 14.3029 6.72491 15.1523C6.91163 15.8418 7.07647 16.4734 7.07648 17.2207C7.15612 18.2163 8.98225 17.6343 9.5589 16.8896C10.4705 17.5515 10.9949 17.7168 12.1234 17.7168C15.2431 17.7001 17.7609 15.15 17.7503 12.0166C17.7503 8.83407 15.2646 6.25 12.0931 6.25ZM12.1702 9.0791V9.08203C13.7695 9.17403 15.0003 10.5359 14.9378 12.1436C14.8304 13.7477 13.4645 14.9707 11.8655 14.8936C11.3649 14.8532 10.8832 14.6802 10.47 14.3936C10.2202 14.6445 9.81972 14.9702 9.66046 14.9316C9.32823 14.8434 8.93794 13.1475 9.15753 11.7549C9.42388 10.0726 10.627 8.99915 12.1702 9.0791Z" fill="#002029"/>
</svg>
