<svg width="24" height="24" viewBox="0 0 24 24" fill="none" xmlns="http://www.w3.org/2000/svg">
<path fill-rule="evenodd" clip-rule="evenodd" d="M12.1719 19.9543C10.6017 19.9543 9.87199 19.7241 8.60362 18.8032C7.80132 19.8392 5.26075 20.6489 5.14995 19.2637C5.14995 18.2239 4.92072 17.3452 4.66093 16.3859C4.35148 15.2041 4 13.888 4 11.981C4 7.42646 7.72111 4 12.1299 4C16.5424 4 20 7.59529 20 12.0232C20.0148 16.3827 16.5125 19.9311 12.1719 19.9543ZM12.2368 7.93678C10.0898 7.82552 8.41641 9.31812 8.04583 11.6587C7.7402 13.5964 8.2827 15.9562 8.74497 16.079C8.96655 16.1327 9.52434 15.6799 9.87199 15.3307C10.4469 15.7296 11.1163 15.9691 11.8128 16.0252C14.0375 16.1327 15.9385 14.4317 16.0878 12.1997C16.1748 9.96306 14.4619 8.06863 12.2368 7.94063V7.93678Z" fill="#002029"/>
</svg>
