<svg width="24" height="24" viewBox="0 0 24 24" fill="none" xmlns="http://www.w3.org/2000/svg">
<path d="M11.9979 11.9087C13.2634 11.9087 14.4115 11.3868 15.2334 10.5649C16.0554 9.74295 16.5772 8.59485 16.5772 7.32934C16.5772 6.06382 16.0554 4.91573 15.2334 4.09379C14.4115 3.27186 13.2634 2.75 11.9979 2.75C10.7324 2.75 9.58427 3.27186 8.76233 4.09379C7.9404 4.90268 7.41854 6.05078 7.41854 7.32934C7.41854 8.6079 7.9404 9.74295 8.76233 10.5649C9.58427 11.3868 10.7454 11.9087 11.9979 11.9087ZM10.5367 5.84203C10.915 5.46368 11.4369 5.22884 12.0109 5.22884C12.598 5.22884 13.1068 5.46368 13.4852 5.84203C13.8635 6.22038 14.0984 6.74224 14.0984 7.31629C14.0984 7.90338 13.8635 8.4122 13.4852 8.79055C13.1068 9.1689 12.585 9.40374 12.0109 9.40374C11.4238 9.40374 10.915 9.1689 10.5367 8.79055C10.1583 8.4122 9.92347 7.89034 9.92347 7.31629C9.92347 6.74224 10.1714 6.22038 10.5367 5.84203Z" fill="#002029"/>
<path d="M18.1819 13.7613L16.8381 11.9217C16.7599 11.8173 16.6033 11.8043 16.512 11.8956C15.2465 12.9785 13.6809 13.683 11.9979 13.683C10.3149 13.683 8.76232 12.9785 7.48376 11.8956C7.39243 11.8173 7.23587 11.8304 7.15759 11.9217L5.8138 13.7613C5.74857 13.8526 5.76161 13.97 5.83989 14.0483C6.97494 14.9616 8.29264 15.5878 9.66253 15.914L6.81838 20.9238C6.74011 21.0673 6.84448 21.25 7.00104 21.25H9.77995C9.87128 21.25 9.94955 21.1978 9.97565 21.1065L11.9587 16.6707L13.9418 21.1065C13.9679 21.1848 14.0462 21.25 14.1375 21.25H16.9164C17.086 21.25 17.1773 21.0804 17.0991 20.9238L14.2549 15.914C15.6248 15.5878 16.9425 14.9877 18.0776 14.0483C18.2472 13.97 18.2602 13.8526 18.1819 13.7613Z" fill="#002029"/>
</svg>
