<svg width="24" height="24" viewBox="0 0 24 24" fill="none" xmlns="http://www.w3.org/2000/svg">
<path d="M6.20001 6.66698V17.3336C6.20001 18.2132 6.20001 18.6527 6.3851 18.9129C6.54665 19.1401 6.79565 19.2891 7.07208 19.3248C7.38881 19.3657 7.77646 19.1593 8.55255 18.7454L18.5526 13.4121C19.412 12.9537 19.8418 12.7241 19.9826 12.4189C20.1053 12.1531 20.1053 11.8462 19.9826 11.5803C19.842 11.2756 19.4132 11.0469 18.5562 10.5898L18.5526 10.5882L8.55255 5.25487C7.77702 4.84126 7.3887 4.63415 7.07208 4.67499C6.79565 4.71064 6.54665 4.85977 6.3851 5.08691C6.20001 5.34715 6.20001 5.78742 6.20001 6.66698Z" fill="#002029" stroke="#002029" stroke-width="2" stroke-linecap="round" stroke-linejoin="round"/>
</svg>
