<svg width="24" height="24" viewBox="0 0 24 24" fill="none" xmlns="http://www.w3.org/2000/svg">
<path fill-rule="evenodd" clip-rule="evenodd" d="M4.06865 11.4649C8.63203 9.47675 11.675 8.16601 13.1976 7.53273C17.5448 5.72458 18.4481 5.41048 19.0368 5.40011C19.1663 5.39783 19.4559 5.42992 19.6434 5.58211C19.8018 5.71061 19.8454 5.8842 19.8662 6.00603C19.8871 6.12786 19.913 6.4054 19.8924 6.62226C19.6568 9.09748 18.6375 15.1042 18.1189 17.8765C17.8995 19.0495 17.4674 19.4429 17.0491 19.4813C16.1401 19.565 15.4498 18.8806 14.5693 18.3034C13.1916 17.4003 12.4133 16.8381 11.0759 15.9569C9.53042 14.9384 10.5323 14.3786 11.4131 13.4638C11.6436 13.2244 15.6489 9.58131 15.7264 9.25082C15.7361 9.20949 15.7451 9.05542 15.6535 8.97407C15.562 8.89271 15.4269 8.92053 15.3294 8.94266C15.1913 8.97402 12.9903 10.4288 8.72661 13.3069C8.10188 13.7359 7.53602 13.9449 7.02902 13.9339C6.4701 13.9219 5.39497 13.6179 4.59572 13.3581C3.6154 13.0394 2.83627 12.871 2.90411 12.3298C2.93945 12.0479 3.32763 11.7596 4.06865 11.4649Z" fill="#002029"/>
</svg>
