<svg width="24" height="24" viewBox="0 0 24 24" fill="none" xmlns="http://www.w3.org/2000/svg">
<path d="M15.1202 15.1202H3.41949V4.97959H15.1202L15.1202 12M15.1202 15.1202L20.5805 15.1202V12M15.1202 15.1202L15.1202 12M20.5805 12H15.1202M20.5805 12L19.9514 9.40809C19.7338 8.51126 18.9307 7.87981 18.0079 7.87981H15.1202L15.1202 12M8.87984 17.0703C8.87984 18.1473 8.00675 19.0204 6.92973 19.0204C5.85271 19.0204 4.97961 18.1473 4.97961 17.0703C4.97961 15.9933 5.85271 15.1202 6.92973 15.1202C8.00675 15.1202 8.87984 15.9933 8.87984 17.0703ZM19.0204 17.0703C19.0204 18.1473 18.1473 19.0204 17.0703 19.0204C15.9933 19.0204 15.1202 18.1473 15.1202 17.0703C15.1202 15.9933 15.9933 15.1202 17.0703 15.1202C18.1473 15.1202 19.0204 15.9933 19.0204 17.0703Z" stroke="#002029" stroke-width="2" stroke-linecap="round" stroke-linejoin="round"/>
</svg>
