<svg width="24" height="24" viewBox="0 0 24 24" fill="none" xmlns="http://www.w3.org/2000/svg">
<path d="M12 3C10.3431 3 9 4.34315 9 6C9 7.65685 10.3431 9 12 9C13.6569 9 15 7.65685 15 6C15 4.34315 13.6569 3 12 3Z" stroke="#002029" stroke-width="2" stroke-linecap="round" stroke-linejoin="round"/>
<path d="M8.20019 9C7.08009 9 6.51962 9 6.0918 9.21799C5.71547 9.40973 5.40973 9.71547 5.21799 10.0918C5 10.5196 4 16.6801 4 17.8002C4 18.9203 4 19.4801 4.21799 19.9079C4.40973 20.2842 4.71547 20.5905 5.0918 20.7822C5.5192 21 6.07902 21 7.19694 21H16.8031C17.921 21 18.48 21 18.9074 20.7822C19.2837 20.5905 19.5905 20.2842 19.7822 19.9079C20 19.4805 20 18.9215 20 17.8036C20 16.6857 19 10.5192 18.7822 10.0918C18.5905 9.71547 18.2837 9.40973 17.9074 9.21799C17.4796 9 16.9203 9 15.8002 9H8.20019Z" stroke="#002029" stroke-width="2" stroke-linecap="round" stroke-linejoin="round"/>
</svg>
