<svg width="373" height="23" viewBox="0 0 373 23" fill="none" xmlns="http://www.w3.org/2000/svg">
<path d="M4.82391 1.96033C5.10767 2.47994 5.43084 3.12551 5.79342 3.89704C6.17177 4.65283 6.558 5.47948 6.95211 6.37698C7.36198 7.25874 7.76398 8.16411 8.15809 9.0931C8.5522 10.0221 8.92266 10.896 9.26948 11.7148C9.61629 10.896 9.98676 10.0221 10.3809 9.0931C10.775 8.16411 11.1691 7.25874 11.5632 6.37698C11.9731 5.47948 12.3593 4.65283 12.7219 3.89704C13.1002 3.12551 13.4313 2.47994 13.715 1.96033H17.0729C17.2305 3.04678 17.3724 4.26707 17.4985 5.62119C17.6404 6.95957 17.7586 8.36093 17.8532 9.82527C17.9636 11.2739 18.0581 12.7303 18.137 14.1947C18.2315 15.659 18.3104 17.0368 18.3734 18.3279H14.7791C14.7318 16.7376 14.6688 15.0056 14.59 13.1319C14.5111 11.2581 14.3929 9.36865 14.2353 7.46343C13.9515 8.12475 13.6362 8.85692 13.2894 9.65995C12.9426 10.463 12.5958 11.266 12.249 12.069C11.9179 12.8721 11.5947 13.6436 11.2794 14.3836C10.9642 15.1079 10.6962 15.7299 10.4755 16.2495H7.89797C7.67727 15.7299 7.40928 15.1079 7.09399 14.3836C6.7787 13.6436 6.44765 12.8721 6.10083 12.069C5.76978 11.266 5.43084 10.463 5.08402 9.65995C4.73721 8.85692 4.42192 8.12475 4.13816 7.46343C3.98052 9.36865 3.86228 11.2581 3.78346 13.1319C3.70464 15.0056 3.64158 16.7376 3.59429 18.3279H0C0.0630577 17.0368 0.133998 15.659 0.21282 14.1947C0.307406 12.7303 0.401993 11.2739 0.496579 9.82527C0.60693 8.36093 0.725163 6.95957 0.851278 5.62119C0.993158 4.26707 1.14292 3.04678 1.30056 1.96033H4.82391Z" fill="#002029"/>
<path d="M33.0925 12.0926C33.0925 13.0689 32.9506 13.9664 32.6669 14.7851C32.3831 15.5882 31.9733 16.281 31.4373 16.8636C30.9013 17.4304 30.2549 17.8713 29.4982 18.1862C28.7573 18.5011 27.9218 18.6586 26.9917 18.6586C26.0774 18.6586 25.2418 18.5011 24.4852 18.1862C23.7442 17.8713 23.1058 17.4304 22.5698 16.8636C22.0338 16.281 21.616 15.5882 21.3165 14.7851C21.017 13.9664 20.8672 13.0689 20.8672 12.0926C20.8672 11.1164 21.017 10.2268 21.3165 9.42376C21.6318 8.62073 22.0574 7.9358 22.5934 7.36896C23.1452 6.80211 23.7915 6.36124 24.5324 6.04632C25.2891 5.73141 26.1089 5.57395 26.9917 5.57395C27.8903 5.57395 28.71 5.73141 29.4509 6.04632C30.2076 6.36124 30.854 6.80211 31.39 7.36896C31.926 7.9358 32.3437 8.62073 32.6432 9.42376C32.9428 10.2268 33.0925 11.1164 33.0925 12.0926ZM29.4982 12.0926C29.4982 11.0062 29.2775 10.1559 28.8361 9.54185C28.4105 8.91203 27.7957 8.59711 26.9917 8.59711C26.1877 8.59711 25.565 8.91203 25.1236 9.54185C24.6822 10.1559 24.4615 11.0062 24.4615 12.0926C24.4615 13.1791 24.6822 14.0451 25.1236 14.6907C25.565 15.3205 26.1877 15.6354 26.9917 15.6354C27.7957 15.6354 28.4105 15.3205 28.8361 14.6907C29.2775 14.0451 29.4982 13.1791 29.4982 12.0926Z" fill="#002029"/>
<path d="M46.6757 2.99954C46.0924 3.12551 45.5406 3.21211 45.0204 3.25935C44.5002 3.30658 43.9642 3.37744 43.4124 3.47191C42.9395 3.55064 42.4666 3.66873 41.9936 3.82619C41.5207 3.98364 41.0793 4.20408 40.6694 4.4875C40.2753 4.75518 39.9285 5.10158 39.629 5.52672C39.3294 5.9361 39.1166 6.44784 38.9905 7.06192C40.0152 6.5738 41.0084 6.32974 41.97 6.32974C42.7267 6.32974 43.4282 6.45571 44.0745 6.70764C44.7209 6.95957 45.2805 7.33746 45.7534 7.84132C46.2421 8.34519 46.6205 8.97501 46.8885 9.7308C47.1722 10.4708 47.3141 11.3369 47.3141 12.3288C47.3141 13.3995 47.1565 14.3285 46.8412 15.1158C46.5259 15.9031 46.0924 16.5644 45.5406 17.0998C45.0046 17.6194 44.3741 18.013 43.6489 18.2807C42.9395 18.5326 42.1749 18.6586 41.3552 18.6586C39.1639 18.6586 37.5954 17.9973 36.6495 16.6746C35.7036 15.3362 35.2307 13.3759 35.2307 10.7936C35.2307 9.0931 35.3962 7.65238 35.7273 6.47145C36.0583 5.27479 36.5549 4.28281 37.217 3.49553C37.8791 2.6925 38.6989 2.06268 39.6763 1.60605C40.6537 1.14943 41.7887 0.787281 43.0814 0.519606C43.6016 0.409386 44.1218 0.330658 44.6421 0.283421C45.178 0.220439 45.7219 0.125965 46.2737 0L46.6757 2.99954ZM38.9196 9.94337C38.888 10.1638 38.8644 10.4157 38.8486 10.6992C38.8486 10.9826 38.8486 11.2345 38.8486 11.4549C38.8486 12.8406 39.0378 13.8876 39.4162 14.5962C39.8103 15.3048 40.4645 15.659 41.3788 15.659C42.1513 15.659 42.7424 15.3599 43.1523 14.7615C43.5622 14.1632 43.7671 13.3602 43.7671 12.3524C43.7671 11.9588 43.7198 11.5809 43.6252 11.2188C43.5307 10.8409 43.3809 10.5102 43.176 10.2268C42.971 9.94337 42.7188 9.71505 42.4193 9.54185C42.1197 9.36865 41.765 9.28205 41.3552 9.28205C40.9453 9.28205 40.5118 9.32929 40.0546 9.42376C39.6132 9.51824 39.2349 9.69144 38.9196 9.94337Z" fill="#002029"/>
<path d="M61.3504 5.90461V18.3279H57.8034C57.8034 17.5406 57.8113 16.7612 57.8271 15.9897C57.8428 15.2024 57.8586 14.4781 57.8744 13.8168C57.8901 13.1555 57.9059 12.5808 57.9217 12.0926C57.9532 11.5888 57.969 11.2188 57.969 10.9826C57.5118 11.6281 57.0546 12.2816 56.5975 12.9429C56.1403 13.6042 55.6989 14.2577 55.2732 14.9032C54.8634 15.5331 54.4693 16.1393 54.0909 16.7219C53.7283 17.3045 53.4052 17.8398 53.1214 18.3279H50.0237V5.90461H53.547C53.547 6.69189 53.5392 7.44768 53.5234 8.17198C53.5234 8.88054 53.5155 9.52611 53.4997 10.1087C53.484 10.6913 53.4682 11.203 53.4525 11.6439C53.4367 12.069 53.4288 12.3997 53.4288 12.6359C54.3747 11.2503 55.2417 10.0063 56.0299 8.90415C56.8339 7.80196 57.6143 6.80211 58.3709 5.90461H61.3504Z" fill="#002029"/>
<path d="M70.2449 8.78606C70.2291 9.24269 70.2055 9.7308 70.1739 10.2504C70.1582 10.7543 70.1188 11.266 70.0557 11.7856C69.9927 12.2895 69.906 12.7855 69.7956 13.2736C69.701 13.7617 69.5749 14.2183 69.4173 14.6434C69.2281 15.1473 68.9837 15.6197 68.6842 16.0605C68.4004 16.4857 68.03 16.8714 67.5728 17.2178C67.1314 17.5643 66.5875 17.8555 65.9412 18.0917C65.3106 18.3122 64.5697 18.4618 63.7184 18.5405L63.2455 15.6118C64.0495 15.4543 64.6722 15.2339 65.1136 14.9505C65.555 14.6513 65.886 14.2734 66.1067 13.8168C66.2801 13.4232 66.4141 12.9665 66.5087 12.4469C66.6191 11.9273 66.6979 11.3841 66.7452 10.8172C66.7925 10.2347 66.8161 9.6442 66.8161 9.04587C66.8319 8.44753 66.8398 7.87282 66.8398 7.32172V5.90461H76.1802V18.3279H72.6568V8.78606H70.2449Z" fill="#002029"/>
<path d="M84.7628 15.8716C85.4091 15.8716 85.9136 15.7535 86.2762 15.5173C86.6545 15.2654 86.8437 14.8639 86.8437 14.3128C86.8437 14.0294 86.7806 13.7932 86.6545 13.6042C86.5284 13.3995 86.355 13.2421 86.1343 13.1319C85.9136 13.0059 85.6535 12.9193 85.354 12.8721C85.0702 12.8248 84.7628 12.8012 84.4317 12.8012C84.1953 12.8012 83.9352 12.8169 83.6514 12.8484C83.3677 12.8799 83.1548 12.9114 83.013 12.9429V15.7771C83.2021 15.8086 83.4544 15.8322 83.7696 15.848C84.0849 15.8637 84.416 15.8716 84.7628 15.8716ZM83.013 10.3213C83.2337 10.2583 83.5174 10.211 83.8642 10.1796C84.2268 10.1323 84.6367 10.1087 85.0939 10.1087C85.8348 10.1087 86.5205 10.1953 87.1511 10.3685C87.7975 10.5417 88.3571 10.8094 88.83 11.1715C89.303 11.5179 89.6734 11.9667 89.9414 12.5178C90.2094 13.0531 90.3434 13.683 90.3434 14.4073C90.3434 15.1316 90.2173 15.7614 89.9651 16.2967C89.7128 16.8163 89.3502 17.2493 88.8773 17.5957C88.4044 17.9264 87.8369 18.1705 87.1748 18.3279C86.5284 18.5011 85.8033 18.5877 84.9993 18.5877C83.9588 18.5877 83.0051 18.5326 82.138 18.4224C81.271 18.3279 80.3882 18.1705 79.4896 17.95V5.90461H83.013V10.3213Z" fill="#002029"/>
<path d="M103.549 18.3279H100.026V13.4153H96.3604V18.3279H92.837V5.90461H96.3604V10.5338H100.026V5.90461H103.549V18.3279Z" fill="#002029"/>
<path d="M118.488 12.0926C118.488 13.0689 118.346 13.9664 118.063 14.7851C117.779 15.5882 117.369 16.281 116.833 16.8636C116.297 17.4304 115.651 17.8713 114.894 18.1862C114.153 18.5011 113.318 18.6586 112.387 18.6586C111.473 18.6586 110.638 18.5011 109.881 18.1862C109.14 17.8713 108.501 17.4304 107.965 16.8636C107.43 16.281 107.012 15.5882 106.712 14.7851C106.413 13.9664 106.263 13.0689 106.263 12.0926C106.263 11.1164 106.413 10.2268 106.712 9.42376C107.028 8.62073 107.453 7.9358 107.989 7.36896C108.541 6.80211 109.187 6.36124 109.928 6.04632C110.685 5.73141 111.505 5.57395 112.387 5.57395C113.286 5.57395 114.106 5.73141 114.847 6.04632C115.603 6.36124 116.25 6.80211 116.786 7.36896C117.322 7.9358 117.739 8.62073 118.039 9.42376C118.338 10.2268 118.488 11.1164 118.488 12.0926ZM114.894 12.0926C114.894 11.0062 114.673 10.1559 114.232 9.54185C113.806 8.91203 113.191 8.59711 112.387 8.59711C111.583 8.59711 110.961 8.91203 110.519 9.54185C110.078 10.1559 109.857 11.0062 109.857 12.0926C109.857 13.1791 110.078 14.0451 110.519 14.6907C110.961 15.3205 111.583 15.6354 112.387 15.6354C113.191 15.6354 113.806 15.3205 114.232 14.6907C114.673 14.0451 114.894 13.1791 114.894 12.0926Z" fill="#002029"/>
<path d="M120.626 12.2107C120.626 11.1085 120.792 10.1481 121.123 9.32929C121.47 8.49477 121.919 7.80196 122.471 7.25086C123.023 6.69977 123.653 6.28251 124.363 5.99909C125.088 5.71566 125.829 5.57395 126.585 5.57395C128.351 5.57395 129.746 6.11718 130.771 7.20363C131.796 8.27433 132.308 9.85676 132.308 11.9509C132.308 12.1556 132.3 12.3839 132.284 12.6359C132.268 12.8721 132.253 13.0846 132.237 13.2736H124.244C124.323 13.9979 124.662 14.5726 125.261 14.9977C125.86 15.4228 126.664 15.6354 127.673 15.6354C128.319 15.6354 128.95 15.5803 129.565 15.4701C130.195 15.3441 130.708 15.1945 131.102 15.0213L131.575 17.8792C131.386 17.9736 131.133 18.0681 130.818 18.1626C130.503 18.2571 130.148 18.3358 129.754 18.3988C129.376 18.4775 128.966 18.5405 128.524 18.5877C128.083 18.635 127.642 18.6586 127.2 18.6586C126.081 18.6586 125.104 18.4932 124.268 18.1626C123.448 17.8319 122.762 17.3832 122.211 16.8163C121.675 16.2337 121.273 15.5488 121.005 14.7615C120.753 13.9742 120.626 13.124 120.626 12.2107ZM128.903 10.8645C128.887 10.5653 128.832 10.274 128.737 9.9906C128.658 9.70718 128.524 9.45525 128.335 9.23481C128.162 9.01437 127.933 8.8333 127.649 8.69159C127.381 8.54988 127.043 8.47902 126.633 8.47902C126.239 8.47902 125.9 8.54988 125.616 8.69159C125.332 8.81755 125.096 8.99076 124.906 9.21119C124.717 9.43163 124.568 9.69144 124.457 9.9906C124.363 10.274 124.292 10.5653 124.244 10.8645H128.903Z" fill="#002029"/>
<path d="M153.973 10.1323C153.973 11.6439 153.753 12.935 153.311 14.0057C152.886 15.0764 152.294 15.9582 151.538 16.651C150.797 17.3438 149.922 17.8555 148.913 18.1862C147.904 18.5011 146.832 18.6586 145.697 18.6586C144.609 18.6586 143.608 18.5405 142.694 18.3043C141.795 18.0681 140.897 17.7217 139.998 17.2651L141.181 14.3128C141.401 14.4073 141.661 14.5253 141.961 14.6671C142.26 14.793 142.591 14.919 142.954 15.045C143.332 15.1552 143.742 15.2496 144.184 15.3284C144.641 15.4071 145.122 15.4465 145.626 15.4465C146.887 15.4465 147.896 15.1237 148.653 14.4781C149.41 13.8168 149.882 12.8484 150.072 11.573H143.214V8.4554H150.001C149.812 7.19575 149.346 6.26676 148.606 5.66843C147.88 5.07009 146.887 4.77093 145.626 4.77093C144.696 4.77093 143.845 4.88902 143.072 5.1252C142.3 5.34564 141.693 5.56608 141.251 5.78652L140.164 2.90507C141.062 2.4327 141.984 2.09417 142.93 1.88948C143.892 1.66904 144.838 1.55882 145.768 1.55882C146.919 1.55882 147.991 1.73202 148.984 2.07842C149.977 2.42483 150.844 2.95231 151.585 3.66086C152.326 4.35367 152.909 5.2433 153.335 6.32974C153.761 7.40045 153.973 8.66797 153.973 10.1323Z" fill="#002029"/>
<path d="M167.515 18.3279H163.992V13.4153H160.326V18.3279H156.803V5.90461H160.326V10.5338H163.992V5.90461H167.515V18.3279Z" fill="#002029"/>
<path d="M170.229 12.2107C170.229 11.1085 170.394 10.1481 170.725 9.32929C171.072 8.49477 171.522 7.80196 172.073 7.25086C172.625 6.69977 173.256 6.28251 173.965 5.99909C174.69 5.71566 175.431 5.57395 176.188 5.57395C177.953 5.57395 179.349 6.11718 180.373 7.20363C181.398 8.27433 181.91 9.85676 181.91 11.9509C181.91 12.1556 181.902 12.3839 181.887 12.6359C181.871 12.8721 181.855 13.0846 181.839 13.2736H173.847C173.926 13.9979 174.265 14.5726 174.864 14.9977C175.463 15.4228 176.267 15.6354 177.276 15.6354C177.922 15.6354 178.553 15.5803 179.167 15.4701C179.798 15.3441 180.31 15.1945 180.704 15.0213L181.177 17.8792C180.988 17.9736 180.736 18.0681 180.421 18.1626C180.105 18.2571 179.751 18.3358 179.357 18.3988C178.978 18.4775 178.568 18.5405 178.127 18.5877C177.685 18.635 177.244 18.6586 176.803 18.6586C175.683 18.6586 174.706 18.4932 173.87 18.1626C173.051 17.8319 172.365 17.3832 171.813 16.8163C171.277 16.2337 170.875 15.5488 170.607 14.7615C170.355 13.9742 170.229 13.124 170.229 12.2107ZM178.505 10.8645C178.489 10.5653 178.434 10.274 178.34 9.9906C178.261 9.70718 178.127 9.45525 177.938 9.23481C177.764 9.01437 177.536 8.8333 177.252 8.69159C176.984 8.54988 176.645 8.47902 176.235 8.47902C175.841 8.47902 175.502 8.54988 175.218 8.69159C174.935 8.81755 174.698 8.99076 174.509 9.21119C174.32 9.43163 174.17 9.69144 174.06 9.9906C173.965 10.274 173.894 10.5653 173.847 10.8645H178.505Z" fill="#002029"/>
<path d="M192.598 12.2107C192.598 11.1243 192.354 10.2583 191.865 9.61271C191.377 8.95139 190.651 8.62073 189.69 8.62073C189.374 8.62073 189.083 8.63648 188.815 8.66797C188.547 8.68372 188.326 8.70733 188.153 8.73883V15.0922C188.373 15.2339 188.657 15.352 189.004 15.4465C189.367 15.5409 189.729 15.5882 190.092 15.5882C191.763 15.5882 192.598 14.4624 192.598 12.2107ZM196.193 12.1163C196.193 13.0767 196.074 13.9506 195.838 14.7379C195.601 15.5252 195.255 16.2023 194.797 16.7691C194.34 17.3359 193.773 17.7768 193.095 18.0917C192.417 18.4066 191.637 18.5641 190.754 18.5641C190.265 18.5641 189.808 18.5169 189.382 18.4224C188.957 18.3279 188.547 18.1941 188.153 18.0209V22.6973H184.629V6.32974C184.945 6.23527 185.307 6.14867 185.717 6.06994C186.127 5.97547 186.553 5.89674 186.994 5.83376C187.451 5.77077 187.908 5.72354 188.365 5.69205C188.838 5.64481 189.288 5.62119 189.713 5.62119C190.738 5.62119 191.652 5.77865 192.456 6.09356C193.26 6.39273 193.938 6.82573 194.49 7.39257C195.042 7.94367 195.459 8.62073 195.743 9.42376C196.043 10.2268 196.193 11.1243 196.193 12.1163Z" fill="#002029"/>
<path d="M207.721 8.78606H202.424V18.3279H198.9V5.90461H207.721V8.78606Z" fill="#002029"/>
<path d="M221.249 12.0926C221.249 13.0689 221.108 13.9664 220.824 14.7851C220.54 15.5882 220.13 16.281 219.594 16.8636C219.058 17.4304 218.412 17.8713 217.655 18.1862C216.914 18.5011 216.079 18.6586 215.149 18.6586C214.234 18.6586 213.399 18.5011 212.642 18.1862C211.901 17.8713 211.263 17.4304 210.727 16.8636C210.191 16.281 209.773 15.5882 209.473 14.7851C209.174 13.9664 209.024 13.0689 209.024 12.0926C209.024 11.1164 209.174 10.2268 209.473 9.42376C209.789 8.62073 210.214 7.9358 210.75 7.36896C211.302 6.80211 211.948 6.36124 212.689 6.04632C213.446 5.73141 214.266 5.57395 215.149 5.57395C216.047 5.57395 216.867 5.73141 217.608 6.04632C218.365 6.36124 219.011 6.80211 219.547 7.36896C220.083 7.9358 220.501 8.62073 220.8 9.42376C221.1 10.2268 221.249 11.1164 221.249 12.0926ZM217.655 12.0926C217.655 11.0062 217.434 10.1559 216.993 9.54185C216.567 8.91203 215.953 8.59711 215.149 8.59711C214.345 8.59711 213.722 8.91203 213.281 9.54185C212.839 10.1559 212.618 11.0062 212.618 12.0926C212.618 13.1791 212.839 14.0451 213.281 14.6907C213.722 15.3205 214.345 15.6354 215.149 15.6354C215.953 15.6354 216.567 15.3205 216.993 14.6907C217.434 14.0451 217.655 13.1791 217.655 12.0926Z" fill="#002029"/>
<path d="M235.613 12.0926C235.613 13.0689 235.471 13.9664 235.187 14.7851C234.904 15.5882 234.494 16.281 233.958 16.8636C233.422 17.4304 232.775 17.8713 232.019 18.1862C231.278 18.5011 230.442 18.6586 229.512 18.6586C228.598 18.6586 227.762 18.5011 227.006 18.1862C226.265 17.8713 225.626 17.4304 225.09 16.8636C224.554 16.281 224.136 15.5882 223.837 14.7851C223.537 13.9664 223.388 13.0689 223.388 12.0926C223.388 11.1164 223.537 10.2268 223.837 9.42376C224.152 8.62073 224.578 7.9358 225.114 7.36896C225.666 6.80211 226.312 6.36124 227.053 6.04632C227.81 5.73141 228.629 5.57395 229.512 5.57395C230.411 5.57395 231.23 5.73141 231.971 6.04632C232.728 6.36124 233.374 6.80211 233.91 7.36896C234.446 7.9358 234.864 8.62073 235.164 9.42376C235.463 10.2268 235.613 11.1164 235.613 12.0926ZM232.019 12.0926C232.019 11.0062 231.798 10.1559 231.357 9.54185C230.931 8.91203 230.316 8.59711 229.512 8.59711C228.708 8.59711 228.085 8.91203 227.644 9.54185C227.203 10.1559 226.982 11.0062 226.982 12.0926C226.982 13.1791 227.203 14.0451 227.644 14.6907C228.085 15.3205 228.708 15.6354 229.512 15.6354C230.316 15.6354 230.931 15.3205 231.357 14.6907C231.798 14.0451 232.019 13.1791 232.019 12.0926Z" fill="#002029"/>
<path d="M249.196 2.99954C248.613 3.12551 248.061 3.21211 247.541 3.25935C247.021 3.30658 246.485 3.37744 245.933 3.47191C245.46 3.55064 244.987 3.66873 244.514 3.82619C244.041 3.98364 243.6 4.20408 243.19 4.4875C242.796 4.75518 242.449 5.10158 242.149 5.52672C241.85 5.9361 241.637 6.44784 241.511 7.06192C242.536 6.5738 243.529 6.32974 244.49 6.32974C245.247 6.32974 245.949 6.45571 246.595 6.70764C247.241 6.95957 247.801 7.33746 248.274 7.84132C248.763 8.34519 249.141 8.97501 249.409 9.7308C249.693 10.4708 249.835 11.3369 249.835 12.3288C249.835 13.3995 249.677 14.3285 249.362 15.1158C249.046 15.9031 248.613 16.5644 248.061 17.0998C247.525 17.6194 246.894 18.013 246.169 18.2807C245.46 18.5326 244.695 18.6586 243.876 18.6586C241.684 18.6586 240.116 17.9973 239.17 16.6746C238.224 15.3362 237.751 13.3759 237.751 10.7936C237.751 9.0931 237.917 7.65238 238.248 6.47145C238.579 5.27479 239.075 4.28281 239.737 3.49553C240.4 2.6925 241.219 2.06268 242.197 1.60605C243.174 1.14943 244.309 0.787281 245.602 0.519606C246.122 0.409386 246.642 0.330658 247.162 0.283421C247.698 0.220439 248.242 0.125965 248.794 0L249.196 2.99954ZM241.44 9.94337C241.408 10.1638 241.385 10.4157 241.369 10.6992C241.369 10.9826 241.369 11.2345 241.369 11.4549C241.369 12.8406 241.558 13.8876 241.937 14.5962C242.331 15.3048 242.985 15.659 243.899 15.659C244.672 15.659 245.263 15.3599 245.673 14.7615C246.083 14.1632 246.288 13.3602 246.288 12.3524C246.288 11.9588 246.24 11.5809 246.146 11.2188C246.051 10.8409 245.901 10.5102 245.696 10.2268C245.491 9.94337 245.239 9.71505 244.94 9.54185C244.64 9.36865 244.285 9.28205 243.876 9.28205C243.466 9.28205 243.032 9.32929 242.575 9.42376C242.134 9.51824 241.755 9.69144 241.44 9.94337Z" fill="#002029"/>
<path d="M251.953 12.2107C251.953 11.1085 252.118 10.1481 252.45 9.32929C252.796 8.49477 253.246 7.80196 253.797 7.25086C254.349 6.69977 254.98 6.28251 255.689 5.99909C256.414 5.71566 257.155 5.57395 257.912 5.57395C259.677 5.57395 261.073 6.11718 262.097 7.20363C263.122 8.27433 263.634 9.85676 263.634 11.9509C263.634 12.1556 263.626 12.3839 263.611 12.6359C263.595 12.8721 263.579 13.0846 263.563 13.2736H255.571C255.65 13.9979 255.989 14.5726 256.588 14.9977C257.187 15.4228 257.991 15.6354 259 15.6354C259.646 15.6354 260.277 15.5803 260.891 15.4701C261.522 15.3441 262.034 15.1945 262.428 15.0213L262.901 17.8792C262.712 17.9736 262.46 18.0681 262.145 18.1626C261.829 18.2571 261.475 18.3358 261.081 18.3988C260.702 18.4775 260.292 18.5405 259.851 18.5877C259.41 18.635 258.968 18.6586 258.527 18.6586C257.407 18.6586 256.43 18.4932 255.595 18.1626C254.775 17.8319 254.089 17.3832 253.537 16.8163C253.001 16.2337 252.599 15.5488 252.331 14.7615C252.079 13.9742 251.953 13.124 251.953 12.2107ZM260.229 10.8645C260.213 10.5653 260.158 10.274 260.064 9.9906C259.985 9.70718 259.851 9.45525 259.662 9.23481C259.488 9.01437 259.26 8.8333 258.976 8.69159C258.708 8.54988 258.369 8.47902 257.959 8.47902C257.565 8.47902 257.226 8.54988 256.942 8.69159C256.659 8.81755 256.422 8.99076 256.233 9.21119C256.044 9.43163 255.894 9.69144 255.784 9.9906C255.689 10.274 255.618 10.5653 255.571 10.8645H260.229Z" fill="#002029"/>
<path d="M265.762 12.1163C265.762 11.2188 265.904 10.3764 266.188 9.58909C266.487 8.78606 266.913 8.09325 267.465 7.51067C268.017 6.91233 268.686 6.43996 269.475 6.09356C270.263 5.74716 271.161 5.57395 272.17 5.57395C272.833 5.57395 273.439 5.63694 273.991 5.7629C274.543 5.87312 275.079 6.03845 275.599 6.25889L274.866 9.06948C274.535 8.94352 274.173 8.8333 273.778 8.73883C273.384 8.64435 272.943 8.59711 272.454 8.59711C271.414 8.59711 270.633 8.9199 270.113 9.56547C269.609 10.211 269.356 11.0613 269.356 12.1163C269.356 13.2342 269.593 14.1002 270.066 14.7143C270.555 15.3284 271.398 15.6354 272.596 15.6354C273.022 15.6354 273.479 15.596 273.968 15.5173C274.456 15.4386 274.906 15.3126 275.315 15.1394L275.812 18.0209C275.402 18.1941 274.89 18.3437 274.275 18.4696C273.66 18.5956 272.982 18.6586 272.241 18.6586C271.106 18.6586 270.129 18.4932 269.309 18.1626C268.489 17.8162 267.812 17.3517 267.276 16.7691C266.755 16.1865 266.369 15.5016 266.117 14.7143C265.88 13.9113 265.762 13.0453 265.762 12.1163Z" fill="#002029"/>
<path d="M288.889 5.90461V18.3279H285.365V8.8333H281.7V18.3279H278.177V5.90461H288.889Z" fill="#002029"/>
<path d="M291.603 12.2107C291.603 11.1085 291.768 10.1481 292.099 9.32929C292.446 8.49477 292.895 7.80196 293.447 7.25086C293.999 6.69977 294.629 6.28251 295.339 5.99909C296.064 5.71566 296.805 5.57395 297.562 5.57395C299.327 5.57395 300.722 6.11718 301.747 7.20363C302.772 8.27433 303.284 9.85676 303.284 11.9509C303.284 12.1556 303.276 12.3839 303.26 12.6359C303.245 12.8721 303.229 13.0846 303.213 13.2736H295.221C295.299 13.9979 295.638 14.5726 296.237 14.9977C296.836 15.4228 297.64 15.6354 298.649 15.6354C299.296 15.6354 299.926 15.5803 300.541 15.4701C301.172 15.3441 301.684 15.1945 302.078 15.0213L302.551 17.8792C302.362 17.9736 302.11 18.0681 301.794 18.1626C301.479 18.2571 301.124 18.3358 300.73 18.3988C300.352 18.4775 299.942 18.5405 299.501 18.5877C299.059 18.635 298.618 18.6586 298.176 18.6586C297.057 18.6586 296.08 18.4932 295.244 18.1626C294.424 17.8319 293.739 17.3832 293.187 16.8163C292.651 16.2337 292.249 15.5488 291.981 14.7615C291.729 13.9742 291.603 13.124 291.603 12.2107ZM299.879 10.8645C299.863 10.5653 299.808 10.274 299.713 9.9906C299.635 9.70718 299.501 9.45525 299.311 9.23481C299.138 9.01437 298.909 8.8333 298.626 8.69159C298.358 8.54988 298.019 8.47902 297.609 8.47902C297.215 8.47902 296.876 8.54988 296.592 8.69159C296.308 8.81755 296.072 8.99076 295.883 9.21119C295.693 9.43163 295.544 9.69144 295.433 9.9906C295.339 10.274 295.268 10.5653 295.221 10.8645H299.879Z" fill="#002029"/>
<path d="M308.935 5.90461V9.91975C308.935 10.5181 309.124 10.9353 309.503 11.1715C309.897 11.4077 310.441 11.5258 311.134 11.5258C311.276 11.5258 311.497 11.5179 311.796 11.5022C312.096 11.4707 312.364 11.4392 312.6 11.4077V5.90461H316.124V18.3279H312.6V14.2419C312.285 14.2892 311.938 14.3285 311.56 14.36C311.197 14.3915 310.922 14.4073 310.732 14.4073C309.928 14.4073 309.195 14.3364 308.533 14.1947C307.887 14.0372 307.327 13.7932 306.854 13.4625C306.397 13.1161 306.042 12.6595 305.79 12.0926C305.538 11.5101 305.412 10.7936 305.412 9.94337V5.90461H308.935Z" fill="#002029"/>
<path d="M318.852 12.2107C318.852 11.1085 319.017 10.1481 319.348 9.32929C319.695 8.49477 320.144 7.80196 320.696 7.25086C321.248 6.69977 321.878 6.28251 322.588 5.99909C323.313 5.71566 324.054 5.57395 324.811 5.57395C326.576 5.57395 327.971 6.11718 328.996 7.20363C330.021 8.27433 330.533 9.85676 330.533 11.9509C330.533 12.1556 330.525 12.3839 330.509 12.6359C330.494 12.8721 330.478 13.0846 330.462 13.2736H322.47C322.548 13.9979 322.887 14.5726 323.486 14.9977C324.085 15.4228 324.889 15.6354 325.898 15.6354C326.545 15.6354 327.175 15.5803 327.79 15.4701C328.421 15.3441 328.933 15.1945 329.327 15.0213L329.8 17.8792C329.611 17.9736 329.359 18.0681 329.043 18.1626C328.728 18.2571 328.373 18.3358 327.979 18.3988C327.601 18.4775 327.191 18.5405 326.75 18.5877C326.308 18.635 325.867 18.6586 325.425 18.6586C324.306 18.6586 323.329 18.4932 322.493 18.1626C321.673 17.8319 320.988 17.3832 320.436 16.8163C319.9 16.2337 319.498 15.5488 319.23 14.7615C318.978 13.9742 318.852 13.124 318.852 12.2107ZM327.128 10.8645C327.112 10.5653 327.057 10.274 326.962 9.9906C326.884 9.70718 326.75 9.45525 326.56 9.23481C326.387 9.01437 326.158 8.8333 325.875 8.69159C325.607 8.54988 325.268 8.47902 324.858 8.47902C324.464 8.47902 324.125 8.54988 323.841 8.69159C323.557 8.81755 323.321 8.99076 323.132 9.21119C322.943 9.43163 322.793 9.69144 322.682 9.9906C322.588 10.274 322.517 10.5653 322.47 10.8645H327.128Z" fill="#002029"/>
<path d="M343.964 18.3279H340.441V13.4153H336.775V18.3279H333.252V5.90461H336.775V10.5338H340.441V5.90461H343.964V18.3279Z" fill="#002029"/>
<path d="M358.596 5.90461V18.3279H355.049C355.049 17.5406 355.057 16.7612 355.073 15.9897C355.088 15.2024 355.104 14.4781 355.12 13.8168C355.136 13.1555 355.151 12.5808 355.167 12.0926C355.199 11.5888 355.214 11.2188 355.214 10.9826C354.757 11.6281 354.3 12.2816 353.843 12.9429C353.386 13.6042 352.944 14.2577 352.519 14.9032C352.109 15.5331 351.715 16.1393 351.336 16.7219C350.974 17.3045 350.651 17.8398 350.367 18.3279H347.269V5.90461H350.792C350.792 6.69189 350.785 7.44768 350.769 8.17198C350.769 8.88054 350.761 9.52611 350.745 10.1087C350.729 10.6913 350.714 11.203 350.698 11.6439C350.682 12.069 350.674 12.3997 350.674 12.6359C351.62 11.2503 352.487 10.0063 353.275 8.90415C354.079 7.80196 354.86 6.80211 355.616 5.90461H358.596Z" fill="#002029"/>
<path d="M361.319 12.2107C361.319 11.1085 361.484 10.1481 361.815 9.32929C362.162 8.49477 362.611 7.80196 363.163 7.25086C363.715 6.69977 364.345 6.28251 365.055 5.99909C365.78 5.71566 366.521 5.57395 367.277 5.57395C369.043 5.57395 370.438 6.11718 371.463 7.20363C372.488 8.27433 373 9.85676 373 11.9509C373 12.1556 372.992 12.3839 372.976 12.6359C372.961 12.8721 372.945 13.0846 372.929 13.2736H364.937C365.015 13.9979 365.354 14.5726 365.953 14.9977C366.552 15.4228 367.356 15.6354 368.365 15.6354C369.012 15.6354 369.642 15.5803 370.257 15.4701C370.888 15.3441 371.4 15.1945 371.794 15.0213L372.267 17.8792C372.078 17.9736 371.826 18.0681 371.51 18.1626C371.195 18.2571 370.84 18.3358 370.446 18.3988C370.068 18.4775 369.658 18.5405 369.217 18.5877C368.775 18.635 368.334 18.6586 367.892 18.6586C366.773 18.6586 365.796 18.4932 364.96 18.1626C364.14 17.8319 363.455 17.3832 362.903 16.8163C362.367 16.2337 361.965 15.5488 361.697 14.7615C361.445 13.9742 361.319 13.124 361.319 12.2107ZM369.595 10.8645C369.579 10.5653 369.524 10.274 369.429 9.9906C369.351 9.70718 369.217 9.45525 369.027 9.23481C368.854 9.01437 368.625 8.8333 368.342 8.69159C368.074 8.54988 367.735 8.47902 367.325 8.47902C366.931 8.47902 366.592 8.54988 366.308 8.69159C366.024 8.81755 365.788 8.99076 365.599 9.21119C365.409 9.43163 365.26 9.69144 365.149 9.9906C365.055 10.274 364.984 10.5653 364.937 10.8645H369.595Z" fill="#002029"/>
</svg>
